<svg width="35" height="35" viewBox="0 0 35 35" fill="none" xmlns="http://www.w3.org/2000/svg">
<path d="M2.1875 12.6875C2.1875 9.01216 2.1875 7.17449 2.90277 5.77069C3.53194 4.53587 4.53587 3.53194 5.77069 2.90277C7.17449 2.1875 9.01216 2.1875 12.6875 2.1875H22.3125C25.9878 2.1875 27.8255 2.1875 29.2293 2.90277C30.4641 3.53194 31.4681 4.53587 32.0972 5.77069C32.8125 7.17449 32.8125 9.01216 32.8125 12.6875V22.3125C32.8125 25.9878 32.8125 27.8255 32.0972 29.2293C31.4681 30.4641 30.4641 31.4681 29.2293 32.0972C27.8255 32.8125 25.9878 32.8125 22.3125 32.8125H12.6875C9.01216 32.8125 7.17449 32.8125 5.77069 32.0972C4.53587 31.4681 3.53194 30.4641 2.90277 29.2293C2.1875 27.8255 2.1875 25.9878 2.1875 22.3125V12.6875Z" fill="white"/>
<path d="M25.852 10.2156C24.2944 9.53093 22.6288 9.03331 20.8877 8.75C20.6738 9.11322 20.424 9.60176 20.2518 9.9904C18.4008 9.72888 16.5669 9.72888 14.75 9.9904C14.5778 9.60176 14.3222 9.11322 14.1065 8.75C12.3634 9.03331 10.6961 9.53274 9.13848 10.2192C5.99677 14.6795 5.1451 19.0292 5.57093 23.317C7.65468 24.779 9.67408 25.667 11.6594 26.2481C12.1496 25.6144 12.5868 24.9407 12.9635 24.2305C12.2461 23.9745 11.5591 23.6585 10.9099 23.2915C11.0822 23.1717 11.2506 23.0464 11.4134 22.9175C15.3728 24.6573 19.6745 24.6573 23.5866 22.9175C23.7512 23.0464 23.9197 23.1717 24.09 23.2915C23.439 23.6602 22.75 23.9762 22.0327 24.2324C22.4093 24.9407 22.8446 25.6162 23.3367 26.25C25.3239 25.6689 27.3452 24.7808 29.429 23.317C29.9286 18.3463 28.5754 14.0366 25.852 10.2156ZM13.5028 20.6801C12.3142 20.6801 11.3396 19.6375 11.3396 18.3681C11.3396 17.0987 12.2934 16.0544 13.5028 16.0544C14.7121 16.0544 15.6868 17.0968 15.666 18.3681C15.668 19.6375 14.7121 20.6801 13.5028 20.6801ZM21.4971 20.6801C20.3085 20.6801 19.3339 19.6375 19.3339 18.3681C19.3339 17.0987 20.2878 16.0544 21.4971 16.0544C22.7065 16.0544 23.6812 17.0968 23.6603 18.3681C23.6603 19.6375 22.7065 20.6801 21.4971 20.6801Z" fill="#5865F2"/>
</svg>
