<svg width="43" height="43" viewBox="0 0 43 43" fill="none" xmlns="http://www.w3.org/2000/svg">
<mask id="mask0_1_2334" style="mask-type:alpha" maskUnits="userSpaceOnUse" x="0" y="0" width="43" height="43">
<circle cx="21.5" cy="21.5" r="21.2201" fill="black" stroke="black" stroke-width="0.559896"/>
</mask>
<g mask="url(#mask0_1_2334)">
<rect x="-2.01562" width="83.3007" height="45.5755" fill="#2D2D2F"/>
<rect x="0.165009" y="5.0155" width="64.5471" height="30.0929" fill="#1E1E1E"/>
<rect x="-0.271118" y="38.1614" width="64.9833" height="4.36129" fill="#1E1E1E"/>
<circle cx="1.25536" cy="5.23357" r="0.218065" fill="#84B5DE"/>
<circle cx="1.25536" cy="7.85039" r="0.218065" fill="#84B5DE"/>
<circle cx="1.25536" cy="10.6852" r="0.218065" fill="#84B5DE"/>
<circle cx="1.25536" cy="13.5201" r="0.218065" fill="#84B5DE"/>
<circle cx="1.25536" cy="16.1368" r="0.218065" fill="#84B5DE"/>
<circle cx="1.25536" cy="18.7536" r="0.218065" fill="#84B5DE"/>
<circle cx="1.25536" cy="21.3703" r="0.218065" fill="#84B5DE"/>
<circle cx="1.25536" cy="23.9871" r="0.218065" fill="#84B5DE"/>
<circle cx="1.25536" cy="26.6039" r="0.218065" fill="#84B5DE"/>
<circle cx="1.25536" cy="29.2206" r="0.218065" fill="#84B5DE"/>
<circle cx="1.25536" cy="31.8375" r="0.218065" fill="#84B5DE"/>
<circle cx="1.25536" cy="5.88774" r="0.218065" fill="#84B5DE"/>
<circle cx="1.25536" cy="8.50456" r="0.218065" fill="#84B5DE"/>
<circle cx="1.25536" cy="11.3394" r="0.218065" fill="#84B5DE"/>
<circle cx="1.25536" cy="14.1742" r="0.218065" fill="#84B5DE"/>
<circle cx="1.25536" cy="16.7909" r="0.218065" fill="#84B5DE"/>
<circle cx="1.25536" cy="19.4078" r="0.218065" fill="#84B5DE"/>
<circle cx="1.25536" cy="22.0246" r="0.218065" fill="#84B5DE"/>
<circle cx="1.25536" cy="24.6413" r="0.218065" fill="#84B5DE"/>
<circle cx="1.25536" cy="27.2581" r="0.218065" fill="#84B5DE"/>
<circle cx="1.25536" cy="29.8748" r="0.218065" fill="#84B5DE"/>
<circle cx="1.25536" cy="32.4916" r="0.218065" fill="#84B5DE"/>
<circle cx="1.25536" cy="6.54192" r="0.218065" fill="#84B5DE"/>
<circle cx="1.25536" cy="9.15874" r="0.218065" fill="#84B5DE"/>
<circle cx="1.25536" cy="11.9936" r="0.218065" fill="#84B5DE"/>
<circle cx="1.25536" cy="14.8284" r="0.218065" fill="#84B5DE"/>
<circle cx="1.25536" cy="17.4451" r="0.218065" fill="#84B5DE"/>
<circle cx="1.25536" cy="20.0619" r="0.218065" fill="#84B5DE"/>
<circle cx="1.25536" cy="22.6788" r="0.218065" fill="#84B5DE"/>
<circle cx="1.25536" cy="25.2955" r="0.218065" fill="#84B5DE"/>
<circle cx="1.25536" cy="27.9123" r="0.218065" fill="#84B5DE"/>
<circle cx="1.25536" cy="30.5291" r="0.218065" fill="#84B5DE"/>
<circle cx="1.25536" cy="33.1458" r="0.218065" fill="#84B5DE"/>
<circle cx="1.25536" cy="7.19609" r="0.218065" fill="#84B5DE"/>
<circle cx="1.25536" cy="9.81291" r="0.218065" fill="#84B5DE"/>
<circle cx="1.25536" cy="12.6478" r="0.218065" fill="#84B5DE"/>
<circle cx="1.25536" cy="15.4826" r="0.218065" fill="#84B5DE"/>
<circle cx="1.25536" cy="18.0994" r="0.218065" fill="#84B5DE"/>
<circle cx="1.25536" cy="20.7161" r="0.218065" fill="#84B5DE"/>
<circle cx="1.25536" cy="23.3329" r="0.218065" fill="#84B5DE"/>
<circle cx="1.25536" cy="25.9498" r="0.218065" fill="#84B5DE"/>
<circle cx="1.25536" cy="28.5665" r="0.218065" fill="#84B5DE"/>
<circle cx="1.25536" cy="31.1833" r="0.218065" fill="#84B5DE"/>
<circle cx="1.25536" cy="33.8" r="0.218065" fill="#84B5DE"/>
<circle cx="4.41728" cy="1.85359" r="0.327097" fill="#84B5DE"/>
<circle cx="18.1553" cy="1.85359" r="0.327097" fill="#9DC79F"/>
<circle cx="22.9528" cy="1.85359" r="0.327097" fill="#9DC79F"/>
<circle cx="24.2612" cy="1.85359" r="0.327097" fill="#CEAE88"/>
<circle cx="25.5696" cy="1.85359" r="0.327097" fill="#C4C5C7"/>
<circle cx="27.5321" cy="1.85359" r="0.327097" fill="#8BBCE5"/>
<circle cx="28.6225" cy="1.85359" r="0.327097" fill="#C3C6CB"/>
<circle cx="29.9309" cy="1.85359" r="0.327097" fill="#C6CCC8"/>
<circle cx="30.8031" cy="1.85359" r="0.327097" fill="#91BBE0"/>
<circle cx="31.8934" cy="1.85359" r="0.327097" fill="#C7C7C9"/>
<circle cx="32.9838" cy="1.85359" r="0.327097" fill="#454547"/>
<circle cx="33.856" cy="1.85359" r="0.327097" fill="#454547"/>
<circle cx="34.9463" cy="1.85359" r="0.327097" fill="#454547"/>
<circle cx="5.28953" cy="1.85359" r="0.327097" fill="#84B5DE"/>
<circle cx="6.59794" cy="1.85359" r="0.327097" fill="#84B5DE"/>
<circle cx="0.492106" cy="1.85359" r="0.327097" fill="#4C4C4E"/>
<circle cx="2.01856" cy="1.85359" r="0.327097" fill="#4C4C4E"/>
<circle cx="8.1244" cy="1.85359" r="0.327097" fill="#4C4C4E"/>
<circle cx="3.32697" cy="1.85359" r="0.327097" fill="#CEAD7C"/>
<rect x="-0.489166" y="0.218018" width="31.8374" height="0.872259" rx="0.436129" fill="#D9D9D9"/>
<rect x="2.99988" y="5.0155" width="5.23355" height="0.436129" rx="0.218065" fill="#D9D9D9"/>
<rect x="2.99988" y="5.66968" width="5.23355" height="0.436129" rx="0.218065" fill="#D9D9D9"/>
<rect x="-0.271118" y="37.9432" width="29.8749" height="0.436129" rx="0.218065" fill="#D9D9D9"/>
<rect x="-0.271118" y="38.5974" width="9.59485" height="0.436129" rx="0.218065" fill="#D9D9D9"/>
<rect x="-0.271118" y="39.2516" width="8.50452" height="0.436129" rx="0.218065" fill="#D9D9D9"/>
<rect x="2.99988" y="6.32385" width="5.23355" height="0.436129" rx="0.218065" fill="#D9D9D9"/>
<rect x="2.99988" y="6.97803" width="5.23355" height="0.436129" rx="0.218065" fill="#D9D9D9"/>
<rect x="2.99988" y="8.2865" width="4.36129" height="0.436129" rx="0.218065" fill="#7591A6"/>
<rect x="2.99988" y="9.81287" width="6.32388" height="0.436129" rx="0.218065" fill="#7591A6"/>
<rect x="2.99988" y="12.4297" width="8.94065" height="0.436129" rx="0.218065" fill="#7591A6"/>
<rect x="3.21793" y="17.4452" width="3.92516" height="0.436129" rx="0.218065" fill="#7591A6"/>
<rect x="3.21793" y="16.1368" width="7.85033" height="0.436129" rx="0.218065" fill="#7591A6"/>
<rect x="2.99988" y="10.4672" width="8.72259" height="0.436129" rx="0.218065" fill="#7591A6"/>
<rect x="2.99988" y="13.0839" width="7.85033" height="0.436129" rx="0.218065" fill="#7591A6"/>
<rect x="3.21793" y="18.0994" width="2.83484" height="0.436129" rx="0.218065" fill="#7591A6"/>
<rect x="2.99988" y="11.1213" width="7.4142" height="0.436129" rx="0.218065" fill="#7591A6"/>
<rect x="2.99988" y="13.738" width="6.97807" height="0.436129" rx="0.218065" fill="#7591A6"/>
<rect x="3.21793" y="18.7535" width="3.05291" height="0.436129" rx="0.218065" fill="#7591A6"/>
<rect x="2.99988" y="11.7755" width="6.54194" height="0.436129" rx="0.218065" fill="#7591A6"/>
<rect x="2.99988" y="14.3922" width="4.14323" height="0.436129" rx="0.218065" fill="#7591A6"/>
<rect x="3.21793" y="19.4077" width="1.96258" height="0.436129" rx="0.218065" fill="#7591A6"/>
<rect x="2.99988" y="20.9342" width="11.1213" height="0.436129" rx="0.218065" fill="#7591A6"/>
<rect x="3.21793" y="25.0774" width="11.1213" height="0.436129" rx="0.218065" fill="#7591A6"/>
<rect x="3.21793" y="29.8749" width="11.1213" height="0.436129" rx="0.218065" fill="#7591A6"/>
<rect x="3.21793" y="33.3639" width="21.3703" height="0.436129" rx="0.218065" fill="#7591A6"/>
<rect x="4.30826" y="22.2426" width="20.4981" height="0.436129" rx="0.218065" fill="#BFA4CF"/>
<rect x="6.48889" y="23.1149" width="19.1897" height="0.436129" rx="0.218065" fill="#BFA4CF"/>
<rect x="6.27084" y="27.9122" width="5.88775" height="0.436129" rx="0.218065" fill="#BFA4CF"/>
<rect x="4.30826" y="31.4014" width="18.7536" height="0.436129" rx="0.218065" fill="#BFA4CF"/>
<rect x="6.27084" y="27.04" width="18.5355" height="0.436129" rx="0.218065" fill="#BFA4CF"/>
<rect x="4.30826" y="26.3859" width="7.19614" height="0.436129" rx="0.218065" fill="#BFA4CF"/>
<rect x="-0.925293" y="2.83484" width="4.79742" height="0.872259" fill="#077AC8"/>
<rect width="66.2917" height="0.218065" transform="matrix(1 0 0 -1 -0.925293 3.92517)" fill="#077AC8"/>
<rect x="-0.271118" y="42.5226" width="64.9833" height="0.654194" fill="#3E3D42"/>
<rect x="18.7005" y="1.30835" width="3.05291" height="0.872259" rx="0.436129" fill="#D9D9D9"/>
<rect x="42.4696" width="3.7071" height="1.09032" fill="#242525"/>
<rect x="32.2205" width="9.59485" height="0.872259" fill="#333335"/>
<rect x="9.32373" y="1.30835" width="3.05291" height="0.872259" fill="#333335"/>
<rect x="12.8128" y="1.30835" width="4.57936" height="0.872259" fill="#333335"/>
<path d="M18.4073 12.4751L17.156 43.0458L33.7915 44.3343L34.4455 12.1979C33.2066 11.4361 33.3029 9.55482 33.5059 8.70943C29.1074 5.45701 22.5415 7.25094 19.8084 8.55446C20.1884 9.89971 19.0327 11.7287 18.4073 12.4751Z" fill="#79162A"/>
<path d="M33.5378 8.73442C28.7003 5.41984 22.3772 7.24137 19.8203 8.56646C19.9995 8.70083 19.895 9.55561 19.8203 9.9662C25.7776 7.09953 31.3355 8.77175 33.3698 9.9662C33.2354 9.56307 33.4258 8.97705 33.5378 8.73442Z" fill="#F4C285"/>
<path d="M21.6951 16.7344L21.788 13.9715L30.7413 14.2727L30.6442 17.158C30.615 18.0265 30.4108 18.7637 30.0315 19.3695C29.6551 19.9754 29.1277 20.4318 28.4492 20.7387C27.7736 21.0457 26.9724 21.1836 26.0456 21.1524C25.113 21.121 24.3157 20.9279 23.6536 20.573C22.9944 20.2182 22.4949 19.717 22.1548 19.0695C21.8177 18.4221 21.6645 17.6437 21.6951 16.7344ZM22.7133 15.088L22.6592 16.6968C22.6343 17.4371 22.7565 18.0554 23.0257 18.5517C23.295 19.048 23.6893 19.4246 24.2088 19.6813C24.7283 19.938 25.3523 20.0786 26.0809 20.1032C26.8037 20.1275 27.4299 20.0304 27.9596 19.8119C28.4921 19.5934 28.9062 19.2543 29.2018 18.7945C29.5003 18.3348 29.6613 17.7552 29.6848 17.0557L29.743 15.3245L22.7133 15.088ZM21.4903 22.8198L30.4436 23.121L30.2618 28.5245L29.3 28.4921L29.4454 24.1729L26.4201 24.0711L26.2842 28.1105L25.3224 28.0782L25.4584 24.0387L22.4156 23.9364L22.268 28.3256L21.3062 28.2932L21.4903 22.8198ZM30.1837 30.8458L22.5575 33.2503L22.5539 33.3552L30.0013 36.2668L29.9631 37.4034L21.1204 33.8147L21.1581 32.6955L30.222 29.7092L30.1837 30.8458Z" fill="#1E1E1E"/>
</g>
</svg>
