<svg width="35" height="35" viewBox="0 0 35 35" fill="none" xmlns="http://www.w3.org/2000/svg">
<path d="M17.5 32.8125C25.9569 32.8125 32.8125 25.9569 32.8125 17.5C32.8125 9.04314 25.9569 2.1875 17.5 2.1875C9.04314 2.1875 2.1875 9.04314 2.1875 17.5C2.1875 25.9569 9.04314 32.8125 17.5 32.8125Z" fill="url(#paint0_linear_4_241)"/>
<path d="M25.1416 11.1659C25.2779 10.2849 24.4403 9.58951 23.6569 9.93344L8.05527 16.7834C7.49353 17.03 7.53462 17.881 8.11723 18.0665L11.3346 19.0911C11.9488 19.2866 12.6137 19.1855 13.1499 18.815L20.4039 13.8035C20.6227 13.6523 20.8611 13.9634 20.6742 14.156L15.4526 19.5394C14.9461 20.0617 15.0466 20.9466 15.6559 21.3287L21.502 24.9947C22.1577 25.4058 23.0012 24.9928 23.1238 24.2004L25.1416 11.1659Z" fill="white"/>
<defs>
<linearGradient id="paint0_linear_4_241" x1="17.5" y1="2.1875" x2="17.5" y2="32.8125" gradientUnits="userSpaceOnUse">
<stop stop-color="#37BBFE"/>
<stop offset="1" stop-color="#007DBB"/>
</linearGradient>
</defs>
</svg>
