<svg width="35" height="35" viewBox="0 0 35 35" fill="none" xmlns="http://www.w3.org/2000/svg">
<path d="M16.862 32.8125H18.138C25.0797 32.8125 28.5378 32.8125 30.6815 30.6688C32.8125 28.525 32.8125 25.0542 32.8125 18.138V16.8364C32.8125 9.94583 32.8125 6.475 30.6815 4.33125C28.5378 2.1875 25.0669 2.1875 18.138 2.1875H16.862C9.92031 2.1875 6.46224 2.1875 4.31849 4.33125C2.1875 6.475 2.1875 9.94583 2.1875 16.862V18.1636C2.1875 25.0542 2.1875 28.525 4.33125 30.6688C6.475 32.8125 9.94583 32.8125 16.862 32.8125Z" fill="#0077FF"/>
<path d="M18.3793 24.0625C11.6528 24.0625 7.81611 19.5463 7.65625 12.0312H11.0257C11.1363 17.547 13.6203 19.8835 15.5878 20.3652V12.0312H18.7604V16.7883C20.7034 16.5837 22.7446 14.4158 23.4333 12.0312H26.6059C26.3465 13.268 25.8291 14.4389 25.0865 15.4709C24.3438 16.5028 23.3917 17.3737 22.2896 18.0288C23.5198 18.6274 24.6063 19.4748 25.4775 20.5148C26.3487 21.5549 26.9848 22.764 27.3438 24.0625H23.8514C23.5292 22.9346 22.8741 21.9251 21.9685 21.1602C21.0629 20.3954 19.9469 19.9094 18.7604 19.7631V24.0625H18.3793Z" fill="white"/>
</svg>
